<svg xmlns="http://www.w3.org/2000/svg" width="2000" height="1100" viewBox="0 0 2000 1100" aria-hidden="true">
  <defs>
    <radialGradient id="bd" cx="0.5" cy="0.5" r="0.75">
      <stop offset="0%" stop-color="#D4FF00" stop-opacity="0.07"/>
      <stop offset="100%" stop-color="#0A0A0A" stop-opacity="0"/>
    </radialGradient>
  </defs>
  <rect width="2000" height="1100" fill="#0A0A0A"/>
  <rect x="60" y="44" width="1880" height="1" fill="#D4FF00" fill-opacity="0.1000"/><rect x="84" y="75" width="1832" height="1" fill="#D4FF00" fill-opacity="0.0974"/><rect x="108" y="106" width="1784" height="1" fill="#D4FF00" fill-opacity="0.0948"/><rect x="132" y="136" width="1736" height="1" fill="#D4FF00" fill-opacity="0.0922"/><rect x="156" y="167" width="1688" height="1" fill="#D4FF00" fill-opacity="0.0896"/><rect x="180" y="198" width="1640" height="1" fill="#D4FF00" fill-opacity="0.0870"/><rect x="204" y="229" width="1592" height="1" fill="#D4FF00" fill-opacity="0.0844"/><rect x="228" y="260" width="1544" height="1" fill="#D4FF00" fill-opacity="0.0818"/><rect x="252" y="290" width="1496" height="1" fill="#D4FF00" fill-opacity="0.0792"/><rect x="276" y="321" width="1448" height="1" fill="#D4FF00" fill-opacity="0.0766"/><rect x="300" y="352" width="1400" height="1" fill="#D4FF00" fill-opacity="0.0740"/><rect x="324" y="383" width="1352" height="1" fill="#D4FF00" fill-opacity="0.0714"/><rect x="348" y="414" width="1304" height="1" fill="#D4FF00" fill-opacity="0.0688"/><rect x="372" y="444" width="1256" height="1" fill="#D4FF00" fill-opacity="0.0662"/><rect x="396" y="475" width="1208" height="1" fill="#D4FF00" fill-opacity="0.0636"/><rect x="420" y="506" width="1160" height="1" fill="#D4FF00" fill-opacity="0.0610"/><rect x="444" y="537" width="1112" height="1" fill="#D4FF00" fill-opacity="0.0584"/><rect x="468" y="568" width="1064" height="1" fill="#D4FF00" fill-opacity="0.0558"/><rect x="492" y="598" width="1016" height="1" fill="#D4FF00" fill-opacity="0.0532"/><rect x="516" y="629" width="968" height="1" fill="#D4FF00" fill-opacity="0.0506"/><rect x="540" y="660" width="920" height="1" fill="#D4FF00" fill-opacity="0.0480"/><rect x="564" y="691" width="872" height="1" fill="#D4FF00" fill-opacity="0.0454"/><rect x="588" y="722" width="824" height="1" fill="#D4FF00" fill-opacity="0.0428"/><rect x="612" y="752" width="776" height="1" fill="#D4FF00" fill-opacity="0.0402"/><rect x="636" y="783" width="728" height="1" fill="#D4FF00" fill-opacity="0.0376"/><rect x="660" y="814" width="680" height="1" fill="#D4FF00" fill-opacity="0.0350"/><rect x="684" y="845" width="632" height="1" fill="#D4FF00" fill-opacity="0.0324"/><rect x="708" y="876" width="584" height="1" fill="#D4FF00" fill-opacity="0.0298"/><rect x="732" y="906" width="536" height="1" fill="#D4FF00" fill-opacity="0.0272"/><rect x="756" y="937" width="488" height="1" fill="#D4FF00" fill-opacity="0.0246"/><rect x="780" y="968" width="440" height="1" fill="#D4FF00" fill-opacity="0.0220"/><rect x="804" y="999" width="392" height="1" fill="#D4FF00" fill-opacity="0.0194"/><rect x="828" y="1030" width="344" height="1" fill="#D4FF00" fill-opacity="0.0168"/><rect x="852" y="1060" width="296" height="1" fill="#D4FF00" fill-opacity="0.0142"/>
  <rect width="2000" height="1100" fill="url(#bd)"/>
</svg>